<svg width="38" height="32" viewBox="0 0 38 32" fill="none" xmlns="http://www.w3.org/2000/svg">
<path d="M3.30979 13.6431L3.30957 13.6433C2.68467 14.2684 2.33362 15.1161 2.33362 16C2.33362 16.8839 2.68467 17.7315 3.30957 18.3566L3.30979 18.3569L8.6336 23.6807C8.93807 23.9919 9.3006 24.2405 9.70074 24.4124C10.1074 24.5871 10.5448 24.6791 10.9874 24.6829C11.43 24.6867 11.869 24.6024 12.2786 24.4348C12.6637 24.2773 13.0156 24.0491 13.3164 23.7623L13.129 24.4185L13.1289 24.4186C12.8862 25.2681 12.9907 26.1793 13.4195 26.9519C13.8483 27.7244 14.5663 28.2951 15.4156 28.5386L15.4249 28.5412L15.4341 28.5438C15.7237 28.6238 16.0227 28.6651 16.3231 28.6666V28.6666L16.3348 28.6666C17.0592 28.6661 17.7637 28.4296 18.3416 27.993C18.9196 27.5563 19.3396 26.9433 19.5381 26.2466L23.7561 11.4836C23.7986 11.648 23.8536 11.8092 23.9209 11.9659C24.0928 12.3661 24.3414 12.7286 24.6526 13.033L27.6196 16L24.6526 18.9669C24.3414 19.2714 24.0928 19.6339 23.9209 20.034C23.7462 20.4407 23.6543 20.8781 23.6504 21.3207C23.6466 21.7633 23.7309 22.2022 23.8985 22.6119C24.0661 23.0216 24.3136 23.3937 24.6266 23.7067C24.9396 24.0197 25.3117 24.2672 25.7214 24.4348C26.131 24.6024 26.57 24.6867 27.0126 24.6829C27.4552 24.6791 27.8926 24.5871 28.2993 24.4124C28.6994 24.2405 29.0619 23.9919 29.3664 23.6807L34.6902 18.3569L34.6904 18.3566C35.3153 17.7315 35.6664 16.8839 35.6664 16C35.6664 15.1161 35.3153 14.2684 34.6904 13.6433L34.6902 13.6431L29.3664 8.31926C29.0619 8.00804 28.6994 7.75943 28.2993 7.58754C27.8926 7.41285 27.4552 7.32089 27.0126 7.31705C26.57 7.3132 26.1311 7.39754 25.7214 7.56514C25.3363 7.72269 24.9844 7.95084 24.6836 8.2376L24.8632 7.6089C24.9918 7.19556 25.0387 6.76099 25.0011 6.32947C24.9622 5.88292 24.8337 5.44878 24.6232 5.05305C24.4126 4.65732 24.1245 4.30811 23.7759 4.02632C23.4273 3.74452 23.0254 3.53594 22.5943 3.41303C22.1633 3.29012 21.7118 3.25542 21.267 3.311C20.8222 3.36658 20.3932 3.51131 20.0057 3.73651C19.6181 3.96172 19.2799 4.26278 19.0114 4.62168C18.7522 4.96815 18.563 5.36167 18.4542 5.7802L14.2439 20.5163C14.2014 20.352 14.1464 20.1907 14.0791 20.034C13.9072 19.6339 13.6586 19.2713 13.3473 18.9669L10.3804 16L13.3474 13.033C13.6586 12.7286 13.9072 12.366 14.0791 11.9659C14.2538 11.5592 14.3457 11.1218 14.3496 10.6792C14.3534 10.2366 14.2691 9.79769 14.1015 9.38804C13.9339 8.97838 13.6864 8.60621 13.3734 8.29323C13.0604 7.98026 12.6883 7.73275 12.2786 7.56514C11.8689 7.39754 11.43 7.3132 10.9874 7.31705C10.5448 7.32089 10.1074 7.41285 9.70074 7.58754C9.30059 7.75944 8.93807 8.00805 8.63361 8.31927L3.30979 13.6431Z" fill="#75A749" stroke="#16181D" stroke-width="4"/>
</svg>
